<svg xmlns="http://www.w3.org/2000/svg" width="1200" height="630" viewBox="0 0 1200 630" role="img" aria-labelledby="title desc">
  <title id="title">Sanjin Pepic Portfolio Preview</title>
  <desc id="desc">Retro desktop preview matching the portfolio site.</desc>
  <defs>
    <pattern id="desktopLines" width="8" height="8" patternUnits="userSpaceOnUse" patternTransform="rotate(45)">
      <rect width="8" height="8" fill="#198f87" />
      <rect width="2" height="8" fill="rgba(255,255,255,0.06)" />
      <rect x="4" width="1" height="8" fill="rgba(0,0,0,0.05)" />
    </pattern>
    <style>
      .mono { font-family: "Courier New", monospace; }
      .ui { fill: #111; font-family: "Courier New", monospace; }
      .ui-white { fill: #fff; font-family: "Courier New", monospace; }
      .label { fill: #fff; font-family: "Courier New", monospace; font-size: 14px; }
      .menu { fill: #111; font-family: "Courier New", monospace; font-size: 18px; font-weight: 700; }
      .title { fill: #111; font-family: "Courier New", monospace; font-size: 36px; font-weight: 700; }
      .body { fill: #111; font-family: "Courier New", monospace; font-size: 14px; }
      .small { fill: #111; font-family: "Courier New", monospace; font-size: 12px; }
    </style>
  </defs>

  <rect width="1200" height="630" fill="url(#desktopLines)" />

  <rect x="0" y="0" width="1200" height="26" fill="#d6d6d6" stroke="#8a8a8a" stroke-width="1" />
  <text x="12" y="18" class="menu"> File View Special</text>
  <text x="1025" y="18" class="menu">Tue 11:04 AM</text>
  <rect x="1175" y="5" width="14" height="14" fill="#e9e9e9" stroke="#a0a0a0" stroke-width="1" />

  <g transform="translate(42 72)">
    <g transform="translate(0 0)">
      <rect x="0" y="0" width="34" height="34" fill="#f2f2f2" stroke="#ffffff" stroke-width="2" />
      <rect x="4" y="4" width="26" height="26" fill="#b8d8ff" stroke="#111" stroke-width="1.5" />
      <circle cx="11" cy="11" r="4" fill="#ff5f57" />
      <circle cx="20" cy="11" r="4" fill="#ffbd2e" />
      <circle cx="15" cy="20" r="4" fill="#28c840" />
      <text x="-2" y="48" class="label">About Me</text>
    </g>
    <g transform="translate(0 98)">
      <rect x="0" y="0" width="34" height="34" fill="#f2f2f2" stroke="#ffffff" stroke-width="2" />
      <path d="M6 8h20v18H6z" fill="#f6d46a" stroke="#111" stroke-width="1.5" />
      <path d="M6 10l4-4h16v4" fill="#ffe79a" stroke="#111" stroke-width="1.5" />
      <text x="-4" y="48" class="label">Projects</text>
    </g>
    <g transform="translate(0 196)">
      <rect x="0" y="0" width="34" height="34" fill="#f2f2f2" stroke="#ffffff" stroke-width="2" />
      <circle cx="17" cy="17" r="11" fill="#7dd27d" stroke="#111" stroke-width="1.5" />
      <path d="M17 6v22M6 17h22" stroke="#e8fff1" stroke-width="1.5" />
      <text x="-4" y="48" class="label">News Feed</text>
    </g>
    <g transform="translate(0 294)">
      <rect x="0" y="0" width="34" height="34" fill="#f2f2f2" stroke="#ffffff" stroke-width="2" />
      <rect x="8" y="6" width="18" height="22" fill="#fff4c9" stroke="#111" stroke-width="1.5" transform="rotate(12 17 17)" />
      <text x="-2" y="48" class="label">Resume</text>
    </g>
    <g transform="translate(0 392)">
      <rect x="0" y="0" width="34" height="34" fill="#f2f2f2" stroke="#ffffff" stroke-width="2" />
      <rect x="7" y="7" width="18" height="20" fill="#f5f5f5" stroke="#111" stroke-width="1.5" />
      <path d="M25 14l-7 0 0-7" fill="none" stroke="#111" stroke-width="1.5" />
      <text x="-2" y="48" class="label">Contact</text>
    </g>
  </g>

  <g transform="translate(220 114)">
    <rect x="0" y="0" width="760" height="356" fill="#d8d1bf" stroke="#111" stroke-width="4" />
    <rect x="0" y="0" width="760" height="36" fill="#5a5a5a" />
    <text x="18" y="24" class="ui-white" style="font-size:19px;">About Me</text>
    <rect x="734" y="8" width="18" height="18" fill="#d8d8d8" stroke="#111" stroke-width="1.5" />
    <text x="739" y="22" class="ui" style="font-size:16px;">X</text>

    <rect x="28" y="58" width="122" height="122" fill="#f1b28f" stroke="#111" stroke-width="4" />
    <rect x="58" y="84" width="58" height="58" rx="6" fill="#2c2c2c" />
    <rect x="48" y="72" width="22" height="22" fill="#2c2c2c" />
    <rect x="96" y="72" width="22" height="22" fill="#2c2c2c" />

    <text x="182" y="96" class="title">Sanjin Pepic</text>
    <text x="182" y="128" class="small" style="font-weight:700;">STRATEGY | PRODUCT | ANALYTICS</text>
    <text x="182" y="158" class="body">Commercial growth, analytics, and</text>
    <text x="182" y="182" class="body">transformation for industrial teams.</text>

    <rect x="32" y="214" width="438" height="72" fill="#e3dccb" stroke="#7d7667" stroke-width="1.5" />
    <text x="48" y="240" class="body">Head of Strategy Development at Erasteel</text>
    <text x="48" y="266" class="body">Previously: Tibber, Anyfin, KTH</text>

    <rect x="32" y="304" width="140" height="28" fill="#efefef" stroke="#111" stroke-width="2" />
    <text x="54" y="323" class="small">LinkedIn</text>
    <rect x="188" y="304" width="114" height="28" fill="#efefef" stroke="#111" stroke-width="2" />
    <text x="224" y="323" class="small">Email</text>

    <text x="500" y="92" class="ui" style="font-size:19px; font-weight:700;">Selected Work</text>
    <rect x="496" y="110" width="228" height="84" fill="#ece8d8" stroke="#111" stroke-width="3" />
    <text x="512" y="138" class="body" style="font-weight:700;">MetalCore</text>
    <text x="512" y="160" class="small">Metallurgical intelligence</text>
    <text x="512" y="178" class="small">platform for faster decisions.</text>

    <rect x="496" y="212" width="228" height="84" fill="#ece8d8" stroke="#111" stroke-width="3" />
    <text x="512" y="240" class="body" style="font-weight:700;">KTH Thesis</text>
    <text x="512" y="262" class="small">Research on procurement</text>
    <text x="512" y="280" class="small">challenges in concentrates.</text>

    <text x="32" y="346" class="small">sanjinpepic.github.io/portfolio/</text>
  </g>
</svg>

